<svg width="165" height="150" viewBox="0 0 165 150" fill="none" xmlns="http://www.w3.org/2000/svg">
<g clip-path="url(#clip0_7599_31713)">
<path d="M139.013 66.3854L158.846 85.1857C160.528 86.7827 162.197 88.4056 163.918 89.9896C165.417 91.3659 165.43 91.6386 163.54 92.5864C160.606 94.0275 157.633 95.3778 154.699 96.806C149.887 99.1431 145.089 101.545 140.251 103.856C139.833 103.989 139.475 104.262 139.237 104.629C138.999 104.996 138.896 105.435 138.947 105.869C139.026 110.335 138.739 114.84 139.117 119.294C139.306 120.4 139.085 121.536 138.495 122.492C137.905 123.447 136.986 124.157 135.909 124.487C126.117 128.85 116.35 133.277 106.532 137.601C97.4823 141.6 88.3548 145.469 79.3055 149.481C78.4916 149.906 77.5686 150.078 76.6553 149.977C75.7421 149.875 74.8803 149.503 74.181 148.909C56.3866 136.41 38.64 123.816 20.9413 111.127C19.9459 110.545 19.1383 109.692 18.6138 108.669C18.0893 107.645 17.8699 106.493 17.9814 105.349C18.19 100.883 17.9814 96.3906 17.9814 91.9112C18.0003 91.507 17.9241 91.104 17.7588 90.7342C17.5936 90.3645 17.3438 90.0384 17.0295 89.7819C11.8789 85.1727 6.68928 80.4986 1.30403 75.7206C6.88487 67.9304 11.8268 59.7897 18.2552 52.3501C15.217 47.8058 12.1528 43.2615 9.12764 38.6264C6.24594 34.4716 3.45552 30.2909 0.743334 26.0582C-0.560601 24.0847 -0.260696 23.4615 2.13855 22.6175C8.63214 20.3064 15.1518 18.0213 21.6976 15.7622C36.9449 10.5687 52.201 5.37524 67.4657 0.181786C68.6262 -0.220707 68.9652 0.402508 69.3695 1.14258C72.3816 6.67361 75.3676 12.2046 78.4057 17.7227C80.1791 20.9556 82.1611 24.0847 83.8171 27.5903C86.8944 22.3968 90.1933 17.6578 93.3749 12.7889C96.0349 8.62115 99.0992 4.76501 101.629 0.545328C102.255 -0.493363 102.855 0.285655 103.415 0.62323C110.3 4.8559 117.198 9.08856 124.057 13.3342C135.896 20.6959 148.023 27.6162 159.719 35.1857C160.671 35.8089 160.788 36.1854 160.149 37.0813C153.173 46.845 146.367 56.7255 139.013 66.3854Z" fill="#1E293B"/>
<path d="M82.7999 29.8624L19.9372 53.142C20.2287 53.2515 20.5119 53.3817 20.7847 53.5316C37.3534 64.9312 53.783 76.5169 70.0735 88.2888C70.3696 88.5239 70.7271 88.6697 71.1038 88.7088C71.4804 88.7479 71.8605 88.6787 72.1989 88.5095C74.5721 87.6006 77.0365 86.9125 79.3445 85.9128C82.3044 84.6144 84.9644 84.6144 87.4158 86.8865C87.7656 87.1924 88.2101 87.3696 88.6752 87.3885C89.1404 87.4074 89.5979 87.2669 89.9716 86.9904C101.472 81.9354 112.982 76.9194 124.5 71.9424C128.685 70.1376 132.897 68.3848 137.278 66.5412C119.206 54.5313 101.707 41.9501 83.6735 29.5897C83.8039 45.5596 84.9775 60.9322 84.8732 76.3308C83.9343 60.9192 83.2432 45.5077 82.7999 29.8624Z" fill="#181722"/>
<path d="M76.2411 95.3519C75.9934 95.6894 75.7717 95.988 75.5761 96.3126C69.9561 105.258 63.1887 113.399 57.5818 122.358C56.4604 124.137 56.1344 124.085 54.5175 122.669L24.9312 96.7021C23.1709 95.1441 21.3976 93.612 19.3243 91.8073C19.3243 95.8712 19.4938 99.5066 19.3243 103.129C19.0896 107.128 21.202 109.751 24.1098 111.828C32.481 117.814 40.9697 123.643 49.38 129.59C58.1555 135.783 66.8788 142.041 75.6413 148.273C76.1759 148.65 76.5932 149.143 77.519 148.715C95.0178 140.704 112.725 133.134 130.381 125.526C132.668 124.661 134.854 123.551 136.9 122.215C137.344 121.89 137.813 121.657 137.813 120.917C137.813 115.723 137.813 110.53 137.813 105.336C137.139 105.368 136.488 105.588 135.935 105.972L104.211 121.397C101.89 122.527 101.068 122.306 99.3338 120.436C91.6145 112.114 83.7909 103.869 76.2411 95.3519Z" fill="#191B2E"/>
<path d="M101.707 120.943L162.992 91.4308C162.298 90.3375 161.415 89.3749 160.384 88.5874C153.108 82.0177 145.597 75.6946 138.778 68.6315C137.878 67.6967 137.031 67.8655 135.974 68.3459C127.303 72.241 118.645 76.1361 109.896 80.0312C99.0861 84.8091 88.2504 89.5092 77.2973 94.3132C85.6164 103.129 93.7921 111.984 101.707 120.943Z" fill="#191B2E"/>
<path d="M84.9253 28.9925C102.763 41.1971 120.445 53.1161 137.891 65.4635C144.737 55.4402 151.948 45.8842 158.976 36.2114C140.043 24.8377 121.54 12.9837 102.594 1.85669C96.7129 10.9193 90.4801 19.6962 84.9253 28.9925Z" fill="#191B2E"/>
<path d="M82.6565 28.564C82.5782 28.4082 82.5261 28.2005 82.4218 28.0187C77.5842 19.5534 73.0986 10.9582 68.6392 2.32409C68.0654 1.29838 67.4265 1.37629 66.5007 1.70088C55.3477 5.62194 44.186 9.51703 33.0156 13.3862C22.4277 17.0346 11.8397 20.631 1.13442 24.2924C7.02821 33.6406 13.6261 42.4695 19.4808 51.9086L82.6565 28.564Z" fill="#191B2E"/>
<path d="M75.537 93.703L65.1968 86.497C50.1102 75.8375 34.9846 65.2039 20.0806 54.2587C19.0244 53.4926 18.4898 53.7912 17.7857 54.6741C14.0825 59.2963 10.9139 64.308 7.41939 69.073C5.89379 71.1504 4.42034 73.2667 2.97297 75.3051C21.0325 90.8076 38.3618 106.777 56.4343 122.579C61.9369 112.166 69.1086 103.207 75.537 93.703Z" fill="#191B2E"/>
<path d="M87.1942 88.1329C84.9253 86.2633 83.5301 85.5362 82.2392 86.0686C78.9924 87.2371 75.7978 88.5225 72.3554 89.8598C73.8028 90.8855 75.0545 91.7684 76.2672 92.6772C76.6714 92.9888 76.9583 92.8071 77.3103 92.6772L87.1942 88.1329Z" fill="#191B2E"/>
</g>
<defs>
<clipPath id="clip0_7599_31713">
<rect width="165" height="150" fill="white"/>
</clipPath>
</defs>
</svg>
