<svg width="110" height="100" viewBox="0 0 110 100" fill="none" xmlns="http://www.w3.org/2000/svg">
<path opacity="0.2" d="M56.4356 99.324C80.0843 99.324 99.2566 80.1518 99.2566 56.4187C99.2566 32.6856 79.9998 13.5133 56.4356 13.5133C32.787 13.5133 13.6147 32.6856 13.6147 56.4187C13.6147 80.1518 32.787 99.324 56.4356 99.324Z" fill="url(#paint0_linear_7599_31168)"/>
<path d="M96.1318 28.3787C98.0442 28.3787 99.5946 26.8283 99.5946 24.9158C99.5946 23.0033 98.0442 21.453 96.1318 21.453C94.2193 21.453 92.6689 23.0033 92.6689 24.9158C92.6689 26.8283 94.2193 28.3787 96.1318 28.3787Z" fill="#F1F3F9"/>
<path d="M101.199 14.8649C102.505 14.8649 103.564 13.8061 103.564 12.5C103.564 11.1939 102.505 10.1352 101.199 10.1352C99.8928 10.1352 98.834 11.1939 98.834 12.5C98.834 13.8061 99.8928 14.8649 101.199 14.8649Z" fill="url(#paint1_linear_7599_31168)"/>
<path d="M10.0675 34.2909C11.3736 34.2909 12.4324 33.2321 12.4324 31.926C12.4324 30.6199 11.3736 29.5611 10.0675 29.5611C8.76142 29.5611 7.70264 30.6199 7.70264 31.926C7.70264 33.2321 8.76142 34.2909 10.0675 34.2909Z" fill="url(#paint2_linear_7599_31168)"/>
<path d="M23.0745 100C25.5001 100 27.4664 98.0338 27.4664 95.6082C27.4664 93.1826 25.5001 91.2163 23.0745 91.2163C20.6489 91.2163 18.6826 93.1826 18.6826 95.6082C18.6826 98.0338 20.6489 100 23.0745 100Z" fill="url(#paint3_linear_7599_31168)"/>
<path d="M109.899 67.9089C109.899 78.8222 101.073 87.6477 90.0649 87.6477C89.8751 87.6477 88.2619 87.6477 76.3996 87.6477C68.1435 87.6477 54.9526 87.6477 33.8853 87.6477H23.8261C10.6352 87.9324 0.101562 77.3987 0.101562 64.6823C0.101562 51.8711 10.7301 41.2425 24.1108 41.9068C35.5934 6.03533 88.167 11.0649 92.6272 48.1701C102.497 49.4038 109.899 57.7548 109.899 67.9089Z" fill="url(#paint4_linear_7599_31168)"/>
<path d="M90.0647 87.6473C100.978 87.6473 109.898 78.8217 109.898 67.9085C109.898 56.9952 100.978 48.1697 90.0647 48.1697C79.1514 48.1697 70.231 56.9952 70.231 67.9085C70.231 78.8217 79.1514 87.6473 90.0647 87.6473Z" fill="url(#paint5_linear_7599_31168)"/>
<path d="M57.7049 87.8373C77.159 87.8373 93.007 72.0842 93.007 52.6301C93.007 33.176 77.159 17.4229 57.7049 17.4229C38.2508 17.4229 22.4028 33.176 22.4028 52.6301C22.4028 72.0842 38.1559 87.8373 57.7049 87.8373Z" fill="url(#paint6_linear_7599_31168)"/>
<path d="M47.9203 53.6402L49.5712 51.9855C50.0528 51.5028 50.0528 50.6755 49.5712 50.1928C49.0897 49.7102 48.2642 49.7102 47.7827 50.1928L46.1317 51.8476L44.4808 50.1928C43.9992 49.7102 43.1737 49.7102 42.6922 50.1928C42.2107 50.6755 42.2107 51.5028 42.6922 51.9855L44.3432 53.6402L42.6922 55.2949C42.2107 55.7775 42.2107 56.6049 42.6922 57.0875C42.9674 57.3633 43.2425 57.4322 43.5865 57.4322C43.9304 57.4322 44.2056 57.2943 44.4808 57.0875L46.1317 55.4328L47.7827 57.0875C48.0579 57.3633 48.333 57.4322 48.677 57.4322C49.0209 57.4322 49.2961 57.2943 49.5712 57.0875C50.0528 56.6049 50.0528 55.7775 49.5712 55.2949L47.9203 53.6402Z" fill="white"/>
<path d="M65.4334 53.6402L67.2678 51.9855C67.8028 51.5028 67.8028 50.6755 67.2678 50.1928C66.7328 49.7102 65.8156 49.7102 65.2805 50.1928L63.4461 51.8476L61.6117 50.1928C61.0767 49.7102 60.1595 49.7102 59.6244 50.1928C59.0894 50.6755 59.0894 51.5028 59.6244 51.9855L61.4588 53.6402L59.6244 55.2949C59.0894 55.7775 59.0894 56.6049 59.6244 57.0875C59.9302 57.3633 60.2359 57.4322 60.6181 57.4322C61.0002 57.4322 61.306 57.2943 61.6117 57.0875L63.4461 55.4328L65.2805 57.0875C65.5863 57.3633 65.892 57.4322 66.2742 57.4322C66.6563 57.4322 66.9621 57.2943 67.2678 57.0875C67.8028 56.6049 67.8028 55.7775 67.2678 55.2949L65.4334 53.6402Z" fill="white"/>
<path fill-rule="evenodd" clip-rule="evenodd" d="M17.615 20.3139C17.813 19.5351 18.6048 19.0642 19.3837 19.2622L24.8905 20.662C25.6694 20.8599 26.1402 21.6518 25.9423 22.4306C25.7443 23.2094 24.9525 23.6803 24.1736 23.4823L18.6668 22.0825C17.8879 21.8846 17.4171 21.0927 17.615 20.3139Z" fill="#F1F5F9"/>
<path fill-rule="evenodd" clip-rule="evenodd" d="M22.2943 4.82677C22.9592 4.37546 23.864 4.5486 24.3153 5.21348L30.8985 14.912C31.3498 15.5768 31.1766 16.4817 30.5118 16.933C29.8469 17.3843 28.942 17.2112 28.4907 16.5463L21.9076 6.84781C21.4563 6.18293 21.6294 5.27808 22.2943 4.82677Z" fill="#F1F5F9"/>
<path fill-rule="evenodd" clip-rule="evenodd" d="M34.5062 0.452942C35.2945 0.296914 36.06 0.809463 36.216 1.59775L38.492 13.0964C38.648 13.8847 38.1355 14.6502 37.3472 14.8062C36.5589 14.9622 35.7934 14.4497 35.6373 13.6614L33.3614 2.16278C33.2054 1.37449 33.7179 0.60897 34.5062 0.452942Z" fill="#F1F5F9"/>
<rect x="45.71" y="65.0333" width="19.4257" height="2.53378" fill="white"/>
<path d="M57.5337 65.8782H60.9121V70.1012C60.9121 71.0341 60.1558 71.7904 59.2229 71.7904C58.29 71.7904 57.5337 71.0341 57.5337 70.1012V65.8782Z" fill="white"/>
<path d="M101.954 28.7706C101.594 30.288 101.054 31.7471 100.394 33.0894C98.6534 36.2411 96.0727 38.809 92.8317 40.3848C89.4706 42.0774 85.5094 42.661 81.4882 41.9023C72.1254 39.9763 66.0635 31.1051 68.0441 21.9421C70.0247 12.7791 79.0875 6.88438 88.5104 8.81036C91.8714 9.51072 94.8123 11.0865 97.273 13.3627C101.354 17.4481 103.095 23.2261 101.954 28.7706Z" fill="#F1F5F9"/>
<path d="M84.9831 14.358C83.7473 14.358 82.7861 15.5671 82.8776 16.9864L83.5642 25.5025C83.6099 26.3435 84.2507 27.0269 84.9831 27.0269C85.7154 27.0269 86.3562 26.3435 86.402 25.5025L87.0885 16.9864C87.1801 15.5145 86.2189 14.358 84.9831 14.358Z" fill="url(#paint7_linear_7599_31168)"/>
<path fill-rule="evenodd" clip-rule="evenodd" d="M82.139 17.0399L82.1386 17.034C82.0271 15.3056 83.2099 13.6171 84.9833 13.6171C86.7484 13.6171 87.9393 15.2432 87.828 17.0323L87.8276 17.039L87.1412 25.5531C87.0739 26.6964 86.1867 27.7675 84.9833 27.7675C83.7798 27.7675 82.8926 26.6964 82.8253 25.5531L82.139 17.0399ZM83.5644 25.5023C83.6101 26.3434 84.2509 27.0268 84.9833 27.0268C85.7156 27.0268 86.3564 26.3434 86.4021 25.5023L87.0887 16.9863C87.1802 15.5144 86.2191 14.3579 84.9833 14.3579C83.7475 14.3579 82.7863 15.5669 82.8778 16.9863L83.5644 25.5023Z" fill="url(#paint8_linear_7599_31168)"/>
<path d="M84.9826 31.2493C83.8098 31.2493 82.8716 32.1875 82.8716 33.3603C82.8716 34.5331 83.8098 35.4714 84.9826 35.4714C86.1554 35.4714 87.0937 34.5331 87.0937 33.3603C87.0937 32.1875 86.1554 31.2493 84.9826 31.2493Z" fill="url(#paint9_linear_7599_31168)"/>
<path fill-rule="evenodd" clip-rule="evenodd" d="M82.1309 33.3611C82.1309 31.779 83.4009 30.5089 84.9831 30.5089C86.5652 30.5089 87.8353 31.779 87.8353 33.3611C87.8353 34.9433 86.5652 36.2134 84.9831 36.2134C83.4009 36.2134 82.1309 34.9433 82.1309 33.3611ZM82.8716 33.3611C82.8716 32.1881 83.81 31.2496 84.9831 31.2496C86.1561 31.2496 87.0946 32.1881 87.0946 33.3611C87.0946 34.5342 86.1561 35.4726 84.9831 35.4726C83.81 35.4726 82.8716 34.5342 82.8716 33.3611Z" fill="url(#paint10_linear_7599_31168)"/>
<defs>
<linearGradient id="paint0_linear_7599_31168" x1="-37.3421" y1="51.9494" x2="81.9505" y2="110.196" gradientUnits="userSpaceOnUse">
<stop stop-color="#18A0FB"/>
<stop offset="1" stop-color="#B800E7"/>
</linearGradient>
<linearGradient id="paint1_linear_7599_31168" x1="96.0198" y1="12.2537" x2="102.603" y2="15.4743" gradientUnits="userSpaceOnUse">
<stop stop-color="#18A0FB"/>
<stop offset="1" stop-color="#B800E7"/>
</linearGradient>
<linearGradient id="paint2_linear_7599_31168" x1="4.88845" y1="31.6797" x2="11.4716" y2="34.9003" gradientUnits="userSpaceOnUse">
<stop stop-color="#18A0FB"/>
<stop offset="1" stop-color="#B800E7"/>
</linearGradient>
<linearGradient id="paint3_linear_7599_31168" x1="13.4563" y1="95.1507" x2="25.6821" y2="101.132" gradientUnits="userSpaceOnUse">
<stop stop-color="#18A0FB"/>
<stop offset="1" stop-color="#B800E7"/>
</linearGradient>
<linearGradient id="paint4_linear_7599_31168" x1="-65.2277" y1="48.9277" x2="54.16" y2="140.353" gradientUnits="userSpaceOnUse">
<stop stop-color="#18A0FB"/>
<stop offset="1" stop-color="#B800E7"/>
</linearGradient>
<linearGradient id="paint5_linear_7599_31168" x1="68.1203" y1="43.9199" x2="85.7028" y2="63.1498" gradientUnits="userSpaceOnUse">
<stop stop-color="white" stop-opacity="0.5"/>
<stop offset="0.9942" stop-color="white" stop-opacity="0"/>
</linearGradient>
<linearGradient id="paint6_linear_7599_31168" x1="19.0971" y1="36.4744" x2="46.8086" y2="47.3188" gradientUnits="userSpaceOnUse">
<stop stop-color="white" stop-opacity="0.5"/>
<stop offset="0.9942" stop-color="white" stop-opacity="0"/>
</linearGradient>
<linearGradient id="paint7_linear_7599_31168" x1="84.9831" y1="14.358" x2="84.9831" y2="27.0269" gradientUnits="userSpaceOnUse">
<stop offset="0.0001" stop-color="#18A0FB"/>
<stop offset="1" stop-color="#426BFF"/>
</linearGradient>
<linearGradient id="paint8_linear_7599_31168" x1="84.9833" y1="13.6171" x2="84.9833" y2="27.7675" gradientUnits="userSpaceOnUse">
<stop offset="0.0001" stop-color="#18A0FB"/>
<stop offset="1" stop-color="#426BFF"/>
</linearGradient>
<linearGradient id="paint9_linear_7599_31168" x1="84.9826" y1="31.2493" x2="84.9826" y2="35.4714" gradientUnits="userSpaceOnUse">
<stop offset="0.0001" stop-color="#18A0FB"/>
<stop offset="1" stop-color="#426BFF"/>
</linearGradient>
<linearGradient id="paint10_linear_7599_31168" x1="84.9831" y1="30.5089" x2="84.9831" y2="36.2134" gradientUnits="userSpaceOnUse">
<stop offset="0.0001" stop-color="#18A0FB"/>
<stop offset="1" stop-color="#426BFF"/>
</linearGradient>
</defs>
</svg>
