<svg width="20" height="20" viewBox="0 0 20 20" fill="none" xmlns="http://www.w3.org/2000/svg">
<path d="M11.9998 19.9988H2.00093C1.46507 20.0175 0.945532 19.8127 0.566391 19.4336C0.18725 19.0545 -0.0174533 18.5349 0.0011681 17.9991V8.00023C-0.0174533 7.46437 0.18725 6.94483 0.566391 6.56569C0.945532 6.18655 1.46507 5.98185 2.00093 6.00047H6.00047V2.00093C5.98185 1.46507 6.18655 0.945532 6.56569 0.566391C6.94483 0.18725 7.46437 -0.0174533 8.00023 0.0011681H17.9991C18.5349 -0.0174533 19.0545 0.18725 19.4336 0.566391C19.8127 0.945532 20.0175 1.46507 19.9988 2.00093V11.9998C20.0172 12.5355 19.8124 13.0549 19.4333 13.434C19.0542 13.8131 18.5348 14.0179 17.9991 13.9995H13.9995V17.9991C14.0179 18.5348 13.8131 19.0542 13.434 19.4333C13.0549 19.8124 12.5355 20.0172 11.9998 19.9988ZM2.00093 8.00023V17.9991H11.9998V13.9995H8.00023C7.46446 14.0179 6.94509 13.8131 6.56602 13.434C6.18695 13.0549 5.98215 12.5355 6.00047 11.9998V8.00023H2.00093ZM8.00023 2.00093V11.9998H17.9991V2.00093H8.00023Z" fill="url(#paint0_linear_7613_30443)"/>
<defs>
<linearGradient id="paint0_linear_7613_30443" x1="-8.90529e-07" y1="-0.256405" x2="22.6799" y2="3.48103" gradientUnits="userSpaceOnUse">
<stop stop-color="#00BEDF"/>
<stop offset="1" stop-color="#0068B3"/>
</linearGradient>
</defs>
</svg>
